<svg width="40" height="40" viewBox="0 0 40 40" fill="none" xmlns="http://www.w3.org/2000/svg">
<path d="M16.5 2.02073C18.6658 0.770296 21.3342 0.770296 23.5 2.02073L33.8205 7.97927C35.9863 9.2297 37.3205 11.5406 37.3205 14.0415V25.9585C37.3205 28.4594 35.9863 30.7703 33.8205 32.0207L23.5 37.9793C21.3342 39.2297 18.6658 39.2297 16.5 37.9793L6.17949 32.0207C4.01368 30.7703 2.67949 28.4594 2.67949 25.9585V14.0415C2.67949 11.5406 4.01368 9.2297 6.17949 7.97927L16.5 2.02073Z" fill="#0955F1"/>
<path d="M24.2953 28.3703L21.3913 26.7011L30.1277 21.6826C30.4627 21.4902 30.7782 21.2692 31.0719 21.0231C32.2075 22.6334 32.3189 24.7537 31.3068 26.5C30.3853 28.0797 28.6901 29.0525 26.8555 29.0545C25.9605 29.0545 25.0759 28.8188 24.2953 28.3703ZM23.5956 29.5758C23.9307 29.7686 24.2805 29.9307 24.6421 30.0611C23.808 31.8439 22.0187 33 19.9919 33C17.1628 33 14.8597 30.709 14.8597 27.8932V17.8554L19.2923 20.403V26.7015C19.2923 26.9502 19.4258 27.1799 19.6421 27.3043L23.5956 29.5758ZM13.1418 29.0536C11.3083 29.0518 9.61395 28.0796 8.6927 26.5009C8.00885 25.3291 7.82457 23.9335 8.181 22.6256C8.52972 21.315 9.39077 20.1979 10.572 19.5238L13.4751 17.8554L13.4756 27.8914C13.4756 28.2767 13.5086 28.6584 13.5761 29.0367C13.4316 29.048 13.2863 29.0536 13.1418 29.0536ZM24.4389 16.6495L20.0076 19.1953L14.5251 16.0463C14.3086 15.9223 14.0423 15.9223 13.8258 16.0463L9.87232 18.3174C9.53727 18.5093 9.22137 18.729 8.92723 18.9765C7.79243 17.3666 7.68148 15.2459 8.6927 13.4996C9.61403 11.9198 11.3091 10.9468 13.1436 10.9446C14.0377 10.9446 14.9232 11.1821 15.7038 11.6302L24.4389 16.6495ZM19.9919 7C22.8224 7 25.1242 9.29103 25.1242 12.1081V15.4448L16.3904 10.4268C16.0563 10.2341 15.7057 10.0714 15.3427 9.9406C16.1764 8.15657 17.9664 7 19.9919 7ZM31.3064 13.5013C32.7206 15.9405 31.8782 19.0701 29.4271 20.4784L20.692 25.4964V20.4039L26.1741 17.254C26.3908 17.1296 26.5244 16.8999 26.5244 16.6512V12.1081C26.5244 11.7246 26.4896 11.3424 26.4235 10.9659C28.4061 10.8013 30.3068 11.7882 31.3064 13.5013Z" fill="white"/>
</svg>
